<mxfile host="app.diagrams.net" modified="2024-01-07T16:25:34.570Z" agent="Mozilla/5.0 (Windows NT 10.0; Win64; x64) AppleWebKit/537.36 (KHTML, like Gecko) Chrome/120.0.0.0 Safari/537.36" etag="UZHUVucNRxQ62qRjfmiU" version="22.1.17" type="github">
  <diagram name="Page-1" id="e7e014a7-5840-1c2e-5031-d8a46d1fe8dd">
    <mxGraphModel dx="1235" dy="614" grid="1" gridSize="10" guides="1" tooltips="1" connect="1" arrows="1" fold="1" page="1" pageScale="1" pageWidth="1169" pageHeight="826" background="none" math="0" shadow="0">
      <root>
        <mxCell id="0" />
        <mxCell id="1" parent="0" />
        <mxCell id="2" value="user" style="swimlane;whiteSpace=wrap" parent="1" vertex="1">
          <mxGeometry x="10" y="128" width="440" height="962" as="geometry" />
        </mxCell>
        <mxCell id="5" value="" style="ellipse;shape=startState;fillColor=#000000;strokeColor=#ff0000;" parent="2" vertex="1">
          <mxGeometry x="116.93" y="32" width="30" height="30" as="geometry" />
        </mxCell>
        <mxCell id="7780oNLmdaPK6DBJYv6F-43" value="" style="edgeStyle=elbowEdgeStyle;elbow=horizontal;verticalAlign=bottom;endArrow=open;endSize=8;strokeColor=#FF0000;endFill=1;rounded=0" parent="2" source="5" target="7780oNLmdaPK6DBJYv6F-42" edge="1">
          <mxGeometry x="100" y="40" as="geometry">
            <mxPoint x="296.93" y="230" as="targetPoint" />
            <mxPoint x="296.68" y="190" as="sourcePoint" />
          </mxGeometry>
        </mxCell>
        <mxCell id="7780oNLmdaPK6DBJYv6F-47" style="edgeStyle=orthogonalEdgeStyle;rounded=0;orthogonalLoop=1;jettySize=auto;html=1;" parent="2" source="7780oNLmdaPK6DBJYv6F-42" edge="1">
          <mxGeometry relative="1" as="geometry">
            <mxPoint x="131.92999999999995" y="122" as="targetPoint" />
          </mxGeometry>
        </mxCell>
        <mxCell id="7780oNLmdaPK6DBJYv6F-42" value="login system" style="rounded=0;whiteSpace=wrap;html=1;" parent="2" vertex="1">
          <mxGeometry x="84.68" y="82" width="94.5" height="18" as="geometry" />
        </mxCell>
        <mxCell id="7780oNLmdaPK6DBJYv6F-45" value="" style="endArrow=none;html=1;rounded=0;strokeWidth=3;" parent="2" edge="1">
          <mxGeometry width="50" height="50" relative="1" as="geometry">
            <mxPoint x="54.68" y="122" as="sourcePoint" />
            <mxPoint x="224.68" y="122" as="targetPoint" />
          </mxGeometry>
        </mxCell>
        <mxCell id="7780oNLmdaPK6DBJYv6F-46" value="" style="endArrow=classic;html=1;rounded=0;" parent="2" edge="1">
          <mxGeometry width="50" height="50" relative="1" as="geometry">
            <mxPoint x="215.5" y="122" as="sourcePoint" />
            <mxPoint x="215.5" y="152" as="targetPoint" />
          </mxGeometry>
        </mxCell>
        <mxCell id="7780oNLmdaPK6DBJYv6F-48" value="" style="endArrow=classic;html=1;rounded=0;" parent="2" edge="1">
          <mxGeometry width="50" height="50" relative="1" as="geometry">
            <mxPoint x="65.5" y="122" as="sourcePoint" />
            <mxPoint x="65.5" y="152" as="targetPoint" />
          </mxGeometry>
        </mxCell>
        <mxCell id="7780oNLmdaPK6DBJYv6F-49" value="search routines" style="rounded=0;whiteSpace=wrap;html=1;" parent="2" vertex="1">
          <mxGeometry x="170" y="152" width="90" height="18" as="geometry" />
        </mxCell>
        <mxCell id="7780oNLmdaPK6DBJYv6F-79" value="view routines" style="rounded=0;whiteSpace=wrap;html=1;" parent="2" vertex="1">
          <mxGeometry x="15.5" y="152" width="90" height="18" as="geometry" />
        </mxCell>
        <mxCell id="7780oNLmdaPK6DBJYv6F-88" value="" style="endArrow=none;html=1;rounded=0;strokeWidth=3;" parent="2" edge="1">
          <mxGeometry width="50" height="50" relative="1" as="geometry">
            <mxPoint x="14.069999999999993" y="352" as="sourcePoint" />
            <mxPoint x="340" y="352" as="targetPoint" />
          </mxGeometry>
        </mxCell>
        <mxCell id="7780oNLmdaPK6DBJYv6F-80" value="add sets" style="rounded=0;whiteSpace=wrap;html=1;" parent="2" vertex="1">
          <mxGeometry x="179.18" y="462" width="56.14" height="18" as="geometry" />
        </mxCell>
        <mxCell id="7780oNLmdaPK6DBJYv6F-83" value="attach pictures(routineID)" style="rounded=0;whiteSpace=wrap;html=1;" parent="2" vertex="1">
          <mxGeometry x="210.82" y="502" width="103.07" height="32" as="geometry" />
        </mxCell>
        <mxCell id="7780oNLmdaPK6DBJYv6F-82" value="unfinish routines" style="rounded=0;whiteSpace=wrap;html=1;" parent="2" vertex="1">
          <mxGeometry x="146.93" y="705" width="124.5" height="18" as="geometry" />
        </mxCell>
        <mxCell id="7BKolSLKm3M7dSCPtifk-15" value="display UpdatedContent" style="rounded=0;whiteSpace=wrap;html=1;" parent="2" vertex="1">
          <mxGeometry x="63.86" y="572" width="134.18" height="18" as="geometry" />
        </mxCell>
        <mxCell id="7BKolSLKm3M7dSCPtifk-26" style="edgeStyle=orthogonalEdgeStyle;rounded=0;orthogonalLoop=1;jettySize=auto;html=1;entryX=0.397;entryY=-0.099;entryDx=0;entryDy=0;entryPerimeter=0;" parent="2" target="7780oNLmdaPK6DBJYv6F-83" edge="1">
          <mxGeometry relative="1" as="geometry">
            <mxPoint x="251" y="432" as="targetPoint" />
            <mxPoint x="250" y="352" as="sourcePoint" />
            <Array as="points">
              <mxPoint x="250" y="492" />
              <mxPoint x="252" y="492" />
            </Array>
          </mxGeometry>
        </mxCell>
        <mxCell id="7BKolSLKm3M7dSCPtifk-29" style="edgeStyle=orthogonalEdgeStyle;rounded=0;orthogonalLoop=1;jettySize=auto;html=1;" parent="2" source="7BKolSLKm3M7dSCPtifk-27" edge="1">
          <mxGeometry relative="1" as="geometry">
            <mxPoint x="490" y="532" as="targetPoint" />
          </mxGeometry>
        </mxCell>
        <mxCell id="7BKolSLKm3M7dSCPtifk-27" value="finish sets" style="rounded=0;whiteSpace=wrap;html=1;" parent="2" vertex="1">
          <mxGeometry x="141.9" y="401" width="56.14" height="18" as="geometry" />
        </mxCell>
        <mxCell id="7BKolSLKm3M7dSCPtifk-28" style="edgeStyle=orthogonalEdgeStyle;rounded=0;orthogonalLoop=1;jettySize=auto;html=1;entryX=0.5;entryY=0;entryDx=0;entryDy=0;" parent="2" target="7BKolSLKm3M7dSCPtifk-27" edge="1">
          <mxGeometry relative="1" as="geometry">
            <mxPoint x="97.9" y="361" as="targetPoint" />
            <mxPoint x="168.9" y="352" as="sourcePoint" />
          </mxGeometry>
        </mxCell>
        <mxCell id="7780oNLmdaPK6DBJYv6F-81" value="remove routine" style="rounded=0;whiteSpace=wrap;html=1;" parent="2" vertex="1">
          <mxGeometry x="15.499999999999993" y="536" width="94.5" height="18" as="geometry" />
        </mxCell>
        <mxCell id="7BKolSLKm3M7dSCPtifk-11" value="processing Input" style="rounded=0;whiteSpace=wrap;html=1;" parent="2" vertex="1">
          <mxGeometry x="472.25" y="536" width="104.5" height="18" as="geometry" />
        </mxCell>
        <mxCell id="7BKolSLKm3M7dSCPtifk-13" style="edgeStyle=orthogonalEdgeStyle;rounded=0;orthogonalLoop=1;jettySize=auto;html=1;entryX=0.911;entryY=-0.042;entryDx=0;entryDy=0;entryPerimeter=0;" parent="2" source="7780oNLmdaPK6DBJYv6F-80" target="7BKolSLKm3M7dSCPtifk-11" edge="1">
          <mxGeometry relative="1" as="geometry" />
        </mxCell>
        <mxCell id="7BKolSLKm3M7dSCPtifk-12" style="edgeStyle=orthogonalEdgeStyle;rounded=0;orthogonalLoop=1;jettySize=auto;html=1;entryX=0.5;entryY=0;entryDx=0;entryDy=0;" parent="2" target="7BKolSLKm3M7dSCPtifk-11" edge="1">
          <mxGeometry relative="1" as="geometry">
            <mxPoint x="316.9599999999998" y="511.9999999999998" as="sourcePoint" />
          </mxGeometry>
        </mxCell>
        <mxCell id="7BKolSLKm3M7dSCPtifk-14" style="edgeStyle=orthogonalEdgeStyle;rounded=0;orthogonalLoop=1;jettySize=auto;html=1;entryX=0;entryY=0.5;entryDx=0;entryDy=0;" parent="2" source="7780oNLmdaPK6DBJYv6F-81" target="7BKolSLKm3M7dSCPtifk-11" edge="1">
          <mxGeometry relative="1" as="geometry" />
        </mxCell>
        <mxCell id="7BKolSLKm3M7dSCPtifk-16" style="edgeStyle=orthogonalEdgeStyle;rounded=0;orthogonalLoop=1;jettySize=auto;html=1;entryX=1;entryY=0.5;entryDx=0;entryDy=0;exitX=0.443;exitY=0.977;exitDx=0;exitDy=0;exitPerimeter=0;" parent="2" source="7BKolSLKm3M7dSCPtifk-11" target="7BKolSLKm3M7dSCPtifk-15" edge="1">
          <mxGeometry relative="1" as="geometry" />
        </mxCell>
        <mxCell id="7BKolSLKm3M7dSCPtifk-32" style="edgeStyle=orthogonalEdgeStyle;rounded=0;orthogonalLoop=1;jettySize=auto;html=1;" parent="2" edge="1">
          <mxGeometry relative="1" as="geometry">
            <mxPoint x="44" y="532" as="targetPoint" />
            <mxPoint x="44" y="352" as="sourcePoint" />
          </mxGeometry>
        </mxCell>
        <mxCell id="7BKolSLKm3M7dSCPtifk-36" style="edgeStyle=orthogonalEdgeStyle;rounded=0;orthogonalLoop=1;jettySize=auto;html=1;entryX=0.75;entryY=0;entryDx=0;entryDy=0;" parent="2" source="7BKolSLKm3M7dSCPtifk-33" target="7BKolSLKm3M7dSCPtifk-11" edge="1">
          <mxGeometry relative="1" as="geometry" />
        </mxCell>
        <mxCell id="7BKolSLKm3M7dSCPtifk-33" value="finish routine" style="rounded=0;whiteSpace=wrap;html=1;" parent="2" vertex="1">
          <mxGeometry x="52.43000000000001" y="442" width="94.5" height="18" as="geometry" />
        </mxCell>
        <mxCell id="7BKolSLKm3M7dSCPtifk-35" style="edgeStyle=orthogonalEdgeStyle;rounded=0;orthogonalLoop=1;jettySize=auto;html=1;entryX=0.5;entryY=0;entryDx=0;entryDy=0;" parent="2" edge="1">
          <mxGeometry relative="1" as="geometry">
            <mxPoint x="90.26999999999998" y="442" as="targetPoint" />
            <mxPoint x="90" y="352" as="sourcePoint" />
          </mxGeometry>
        </mxCell>
        <mxCell id="mxrIHzR5c-ykbyB8osG7-6" style="edgeStyle=orthogonalEdgeStyle;rounded=0;orthogonalLoop=1;jettySize=auto;html=1;entryX=0;entryY=0.25;entryDx=0;entryDy=0;" edge="1" parent="2" source="7BKolSLKm3M7dSCPtifk-42" target="7BKolSLKm3M7dSCPtifk-27">
          <mxGeometry relative="1" as="geometry">
            <mxPoint x="81" y="842" as="targetPoint" />
            <Array as="points">
              <mxPoint x="10" y="822" />
              <mxPoint x="10" y="406" />
            </Array>
          </mxGeometry>
        </mxCell>
        <mxCell id="7BKolSLKm3M7dSCPtifk-42" value="display message error" style="rounded=0;whiteSpace=wrap;html=1;" parent="2" vertex="1">
          <mxGeometry x="141.9" y="813" width="124.5" height="18" as="geometry" />
        </mxCell>
        <mxCell id="mxrIHzR5c-ykbyB8osG7-9" style="edgeStyle=orthogonalEdgeStyle;rounded=0;orthogonalLoop=1;jettySize=auto;html=1;entryX=1;entryY=0.5;entryDx=0;entryDy=0;" edge="1" parent="2" source="7BKolSLKm3M7dSCPtifk-44" target="mxrIHzR5c-ykbyB8osG7-7">
          <mxGeometry relative="1" as="geometry" />
        </mxCell>
        <mxCell id="7BKolSLKm3M7dSCPtifk-44" value="see routine finished in past routines" style="rounded=0;whiteSpace=wrap;html=1;" parent="2" vertex="1">
          <mxGeometry x="145" y="873" width="124.5" height="30" as="geometry" />
        </mxCell>
        <mxCell id="mxrIHzR5c-ykbyB8osG7-10" value="" style="group" vertex="1" connectable="0" parent="2">
          <mxGeometry x="33.79" y="871.5" width="33.14000000000001" height="33" as="geometry" />
        </mxCell>
        <mxCell id="mxrIHzR5c-ykbyB8osG7-7" value="" style="ellipse;whiteSpace=wrap;html=1;" vertex="1" parent="mxrIHzR5c-ykbyB8osG7-10">
          <mxGeometry width="33.14" height="33" as="geometry" />
        </mxCell>
        <mxCell id="mxrIHzR5c-ykbyB8osG7-8" value="" style="ellipse;shape=startState;fillColor=#FFFFFF;strokeColor=#ff0000;fontColor=#FFEBEB;" vertex="1" parent="mxrIHzR5c-ykbyB8osG7-10">
          <mxGeometry y="3" width="31.93" height="27" as="geometry" />
        </mxCell>
        <mxCell id="3" value="system" style="swimlane;whiteSpace=wrap" parent="1" vertex="1">
          <mxGeometry x="460" y="128" width="327.25" height="962" as="geometry" />
        </mxCell>
        <mxCell id="7780oNLmdaPK6DBJYv6F-54" value="view exercises" style="rounded=0;whiteSpace=wrap;html=1;" parent="3" vertex="1">
          <mxGeometry x="-108.57" y="232" width="83.07" height="18" as="geometry" />
        </mxCell>
        <mxCell id="7780oNLmdaPK6DBJYv6F-100" style="edgeStyle=orthogonalEdgeStyle;rounded=0;orthogonalLoop=1;jettySize=auto;html=1;exitX=0.5;exitY=1;exitDx=0;exitDy=0;" parent="3" source="7780oNLmdaPK6DBJYv6F-76" edge="1">
          <mxGeometry relative="1" as="geometry">
            <mxPoint x="-94.5" y="352" as="targetPoint" />
          </mxGeometry>
        </mxCell>
        <mxCell id="7780oNLmdaPK6DBJYv6F-76" value="add routines" style="rounded=0;whiteSpace=wrap;html=1;" parent="3" vertex="1">
          <mxGeometry x="64.68" y="262" width="83.07" height="18" as="geometry" />
        </mxCell>
        <mxCell id="7780oNLmdaPK6DBJYv6F-92" style="edgeStyle=orthogonalEdgeStyle;rounded=0;orthogonalLoop=1;jettySize=auto;html=1;entryX=0;entryY=0.5;entryDx=0;entryDy=0;exitX=0.596;exitY=0.944;exitDx=0;exitDy=0;exitPerimeter=0;" parent="3" source="7780oNLmdaPK6DBJYv6F-54" target="7780oNLmdaPK6DBJYv6F-76" edge="1">
          <mxGeometry relative="1" as="geometry" />
        </mxCell>
        <mxCell id="7BKolSLKm3M7dSCPtifk-37" style="edgeStyle=orthogonalEdgeStyle;rounded=0;orthogonalLoop=1;jettySize=auto;html=1;entryX=0.5;entryY=0;entryDx=0;entryDy=0;" parent="3" source="7BKolSLKm3M7dSCPtifk-17" target="7BKolSLKm3M7dSCPtifk-19" edge="1">
          <mxGeometry relative="1" as="geometry" />
        </mxCell>
        <mxCell id="7BKolSLKm3M7dSCPtifk-17" value="check if routine sets are completed" style="rounded=0;whiteSpace=wrap;html=1;" parent="3" vertex="1">
          <mxGeometry x="126.21" y="698" width="113.79" height="32" as="geometry" />
        </mxCell>
        <mxCell id="7BKolSLKm3M7dSCPtifk-20" style="edgeStyle=orthogonalEdgeStyle;rounded=0;orthogonalLoop=1;jettySize=auto;html=1;" parent="3" source="7BKolSLKm3M7dSCPtifk-19" edge="1">
          <mxGeometry relative="1" as="geometry">
            <mxPoint x="130" y="892" as="targetPoint" />
            <Array as="points">
              <mxPoint x="184" y="892" />
            </Array>
          </mxGeometry>
        </mxCell>
        <mxCell id="7BKolSLKm3M7dSCPtifk-40" style="edgeStyle=orthogonalEdgeStyle;rounded=0;orthogonalLoop=1;jettySize=auto;html=1;entryX=1;entryY=0.5;entryDx=0;entryDy=0;" parent="3" source="7BKolSLKm3M7dSCPtifk-19" target="7BKolSLKm3M7dSCPtifk-39" edge="1">
          <mxGeometry relative="1" as="geometry" />
        </mxCell>
        <mxCell id="7BKolSLKm3M7dSCPtifk-19" value="completed?" style="rhombus;whiteSpace=wrap;html=1;" parent="3" vertex="1">
          <mxGeometry x="143.5" y="782" width="80" height="80" as="geometry" />
        </mxCell>
        <mxCell id="7BKolSLKm3M7dSCPtifk-22" value="process&lt;br&gt;finishing routine" style="rounded=0;whiteSpace=wrap;html=1;" parent="3" vertex="1">
          <mxGeometry x="31.71" y="872" width="94.5" height="32" as="geometry" />
        </mxCell>
        <mxCell id="7BKolSLKm3M7dSCPtifk-38" value="yes" style="text;html=1;align=center;verticalAlign=middle;resizable=0;points=[];autosize=1;strokeColor=none;fillColor=none;" parent="3" vertex="1">
          <mxGeometry x="140" y="862" width="40" height="30" as="geometry" />
        </mxCell>
        <mxCell id="7BKolSLKm3M7dSCPtifk-39" value="prompt to finish sets first" style="rounded=0;whiteSpace=wrap;html=1;" parent="3" vertex="1">
          <mxGeometry x="20" y="806" width="94.5" height="32" as="geometry" />
        </mxCell>
        <mxCell id="7BKolSLKm3M7dSCPtifk-41" value="no" style="text;html=1;align=center;verticalAlign=middle;resizable=0;points=[];autosize=1;strokeColor=none;fillColor=none;" parent="3" vertex="1">
          <mxGeometry x="107.75" y="792" width="40" height="30" as="geometry" />
        </mxCell>
        <mxCell id="4" value="ningasAPI" style="swimlane;whiteSpace=wrap" parent="1" vertex="1">
          <mxGeometry x="787.25" y="128" width="280" height="962" as="geometry" />
        </mxCell>
        <mxCell id="7780oNLmdaPK6DBJYv6F-51" value="muscle routines response" style="rounded=0;whiteSpace=wrap;html=1;" parent="4" vertex="1">
          <mxGeometry x="105.5" y="182" width="120" height="60" as="geometry" />
        </mxCell>
        <mxCell id="7780oNLmdaPK6DBJYv6F-53" style="edgeStyle=orthogonalEdgeStyle;rounded=0;orthogonalLoop=1;jettySize=auto;html=1;" parent="1" source="7780oNLmdaPK6DBJYv6F-49" target="7780oNLmdaPK6DBJYv6F-51" edge="1">
          <mxGeometry relative="1" as="geometry" />
        </mxCell>
        <mxCell id="7780oNLmdaPK6DBJYv6F-87" style="edgeStyle=orthogonalEdgeStyle;rounded=0;orthogonalLoop=1;jettySize=auto;html=1;exitX=0.5;exitY=1;exitDx=0;exitDy=0;" parent="1" source="7780oNLmdaPK6DBJYv6F-79" edge="1">
          <mxGeometry relative="1" as="geometry">
            <mxPoint x="216" y="480" as="targetPoint" />
          </mxGeometry>
        </mxCell>
        <mxCell id="7780oNLmdaPK6DBJYv6F-96" style="edgeStyle=orthogonalEdgeStyle;rounded=0;orthogonalLoop=1;jettySize=auto;html=1;entryX=1;entryY=0.5;entryDx=0;entryDy=0;exitX=0.5;exitY=1;exitDx=0;exitDy=0;" parent="1" source="7780oNLmdaPK6DBJYv6F-51" target="7780oNLmdaPK6DBJYv6F-54" edge="1">
          <mxGeometry relative="1" as="geometry" />
        </mxCell>
        <mxCell id="7BKolSLKm3M7dSCPtifk-6" style="edgeStyle=orthogonalEdgeStyle;rounded=0;orthogonalLoop=1;jettySize=auto;html=1;entryX=0.5;entryY=0;entryDx=0;entryDy=0;" parent="1" target="7780oNLmdaPK6DBJYv6F-80" edge="1">
          <mxGeometry relative="1" as="geometry">
            <mxPoint x="226" y="490" as="targetPoint" />
            <mxPoint x="297" y="481" as="sourcePoint" />
          </mxGeometry>
        </mxCell>
        <mxCell id="7BKolSLKm3M7dSCPtifk-10" style="edgeStyle=orthogonalEdgeStyle;rounded=0;orthogonalLoop=1;jettySize=auto;html=1;entryX=0.862;entryY=-0.015;entryDx=0;entryDy=0;entryPerimeter=0;" parent="1" target="7780oNLmdaPK6DBJYv6F-82" edge="1">
          <mxGeometry relative="1" as="geometry">
            <mxPoint x="410" y="780" as="targetPoint" />
            <mxPoint x="350" y="480" as="sourcePoint" />
            <Array as="points">
              <mxPoint x="420" y="480" />
              <mxPoint x="420" y="770" />
              <mxPoint x="344" y="770" />
            </Array>
          </mxGeometry>
        </mxCell>
        <mxCell id="7BKolSLKm3M7dSCPtifk-18" style="edgeStyle=orthogonalEdgeStyle;rounded=0;orthogonalLoop=1;jettySize=auto;html=1;entryX=-0.005;entryY=0.389;entryDx=0;entryDy=0;entryPerimeter=0;" parent="1" source="7780oNLmdaPK6DBJYv6F-82" target="7BKolSLKm3M7dSCPtifk-17" edge="1">
          <mxGeometry relative="1" as="geometry">
            <mxPoint x="570" y="849.0000000000002" as="targetPoint" />
            <Array as="points">
              <mxPoint x="499" y="838" />
            </Array>
          </mxGeometry>
        </mxCell>
        <mxCell id="7BKolSLKm3M7dSCPtifk-43" style="edgeStyle=orthogonalEdgeStyle;rounded=0;orthogonalLoop=1;jettySize=auto;html=1;" parent="1" source="7BKolSLKm3M7dSCPtifk-39" target="7BKolSLKm3M7dSCPtifk-42" edge="1">
          <mxGeometry relative="1" as="geometry" />
        </mxCell>
        <mxCell id="7BKolSLKm3M7dSCPtifk-45" style="edgeStyle=orthogonalEdgeStyle;rounded=0;orthogonalLoop=1;jettySize=auto;html=1;entryX=1;entryY=0.5;entryDx=0;entryDy=0;" parent="1" source="7BKolSLKm3M7dSCPtifk-22" target="7BKolSLKm3M7dSCPtifk-44" edge="1">
          <mxGeometry relative="1" as="geometry" />
        </mxCell>
      </root>
    </mxGraphModel>
  </diagram>
</mxfile>
